<svg
   width="16"
   height="16"
   viewBox="0 0 16 16"
   xmlns="http://www.w3.org/2000/svg"
   xmlns:svg="http://www.w3.org/2000/svg">
    <path
       style="display:inline;fill:#ffffff;stroke:none;stroke-width:0.597718;stroke-linecap:round;stroke-dasharray:none"
       d="M 8.0000331,1.0165935e-6 A 7.9999664,7.9999664 0 0 0 0.25006567,5.9999758 C 0.59118424,5.9865166 1.2987973,6.0138477 2.1563073,6.2499747 l 0.0312,0.0312 h 0.0312 c 0.015344,4.448e-4 0.0744,-0.00237 0.09376,0 0.06352,0.01904 0.1225595,0.0408 0.1875032,0.06256 v -0.0312 C 3.2585746,6.4437339 5.2478927,6.9847556 6.687453,9.1875224 5.2058193,6.1463351 3.3987004,5.313649 2.5000562,5.09373 2.5890158,3.8624391 2.9063105,3.0624873 2.9063105,3.0624873 c 0,0 4.0031656,1.2544427 5.093729,6.4374738 1.0905554,-5.1830359 5.0624775,-6.4374738 5.0624775,-6.4374738 0,0 0.317343,0.7999486 0.406255,2.0312427 C 12.570136,5.313649 10.763009,6.1463335 9.2812901,9.1874616 10.720852,6.9846932 12.710169,6.4436459 13.468772,6.3124736 v 0.0312 c 0.06496,-0.0216 0.123999,-0.04336 0.187503,-0.06256 0.01936,-0.00237 0.0784,4.464e-4 0.09376,0 h 0.0312 l 0.0312,-0.0312 C 14.697439,6.0063629 15.422156,5.984635 15.750001,5.999979 A 7.9999664,7.9999664 0 0 0 8.0000331,1.0165935e-6 Z m 0,1.5624893834065 C 8.2259362,1.7526976 9.9961223,3.4413897 8.0625929,8.1874626 6.070358,3.617173 7.7499734,1.8038574 7.9687853,1.5937447 Z M 15.90625,6.8124683 C 15.74306,8.7259547 14.687312,13.428361 8.2187826,13.906192 v 0.0312 c -0.07776,-0.0032 -0.1423994,0.0044 -0.2187511,0 -0.07632,0.0044 -0.1722233,-0.0032 -0.2499989,0 v -0.0312 C 1.4279551,13.439181 0.26414081,8.9579441 0.06256566,6.9687221 A 7.9999664,7.9999664 0 0 0 6.6750895e-5,7.9999674 7.9999664,7.9999664 0 0 0 8.0000331,15.999934 7.9999664,7.9999664 0 0 0 16,7.9999674 7.9999664,7.9999664 0 0 0 15.90625,6.8124683 Z" />
</svg>
